<svg width="40" height="40" xmlns="http://www.w3.org/2000/svg">

  <g fill-rule="evenodd" fill="none" id="l">
   <g stroke="null" id="1-12">
    <path stroke="null" fill-rule="nonzero" fill="#05B2E6" id="KFANGAGENT" d="m2.960302,14.968275l0,-2.952l0.971084,-1.02l3.147652,3.972l1.763578,0l-4.029441,-4.896l3.504832,-3.672l-1.651959,0l-3.705746,4.044l0,-4.044l-1.305941,0l0,8.568l1.305941,0zm7.969586,0l0,-3.792l3.895498,0l0,-1.2l-3.895498,0l0,-2.376l4.129898,0l0,-1.2l-5.435838,0l0,8.568l1.305941,0zm5.80418,0l0.725523,-2.148l3.337404,0l0.725523,2.148l1.395236,0l-3.047195,-8.568l-1.484531,0l-3.047195,8.568l1.395236,0zm3.67226,-3.3l-2.556072,0l1.261293,-3.756l0.044648,0l1.250131,3.756zm4.598697,3.3l0,-6.264l0.044648,0l3.984793,6.264l1.272455,0l0,-8.568l-1.317102,0l0,6.18l-0.044648,0l-3.940146,-6.18l-1.305941,0l0,8.568l1.305941,0zm10.469849,0.168c0.714361,0 1.350588,-0.096 1.931006,-0.288c0.546932,-0.192 1.026893,-0.456 1.451045,-0.816l0,-3.624l-3.415537,0l0,1.2l2.109596,0l0,1.764c-0.267885,0.168 -0.546932,0.3 -0.859465,0.396c-0.334857,0.096 -0.692037,0.144 -1.071541,0.144c-0.971084,0 -1.685445,-0.288 -2.143082,-0.864c-0.424152,-0.54 -0.636227,-1.32 -0.636227,-2.328c0,-1.056 0.2344,-1.86 0.714361,-2.436c0.435314,-0.552 1.026893,-0.816 1.77474,-0.816c0.602742,0 1.093865,0.132 1.462207,0.408c0.35718,0.276 0.602742,0.684 0.714361,1.236l1.317102,0c-0.145105,-0.96 -0.502285,-1.668 -1.071541,-2.148c-0.59158,-0.492 -1.395236,-0.732 -2.422129,-0.732c-1.18316,0 -2.120758,0.432 -2.812795,1.32c-0.658551,0.828 -0.982246,1.884 -0.982246,3.168c0,1.272 0.323695,2.316 0.982246,3.12c0.703199,0.864 1.685445,1.296 2.9579,1.296zm-33.206609,16.832l0.725523,-2.148l3.337404,0l0.725523,2.148l1.395236,0l-3.047195,-8.568l-1.484531,0l-3.047195,8.568l1.395236,0zm3.67226,-3.3l-2.556072,0l1.261293,-3.756l0.044648,0l1.250131,3.756zm6.898045,3.468c0.714361,0 1.350588,-0.096 1.931006,-0.288c0.546932,-0.192 1.026893,-0.456 1.451045,-0.816l0,-3.624l-3.415537,0l0,1.2l2.109596,0l0,1.764c-0.267885,0.168 -0.546932,0.3 -0.859465,0.396c-0.334857,0.096 -0.692037,0.144 -1.071541,0.144c-0.971084,0 -1.685445,-0.288 -2.143082,-0.864c-0.424152,-0.54 -0.636227,-1.32 -0.636227,-2.328c0,-1.056 0.2344,-1.86 0.714361,-2.436c0.435314,-0.552 1.026893,-0.816 1.77474,-0.816c0.602742,0 1.093865,0.132 1.462207,0.408c0.35718,0.276 0.602742,0.684 0.714361,1.236l1.317102,0c-0.145105,-0.96 -0.502285,-1.668 -1.071541,-2.148c-0.59158,-0.492 -1.395236,-0.732 -2.422129,-0.732c-1.18316,0 -2.120758,0.432 -2.812795,1.32c-0.658551,0.828 -0.982246,1.884 -0.982246,3.168c0,1.272 0.323695,2.316 0.982246,3.12c0.703199,0.864 1.685445,1.296 2.9579,1.296zm10.77122,-0.168l0,-1.2l-4.632182,0l0,-2.592l4.174545,0l0,-1.2l-4.174545,0l0,-2.376l4.44243,0l0,-1.2l-5.748371,0l0,8.568l5.938123,0zm2.533748,0l0,-6.264l0.044648,0l3.984793,6.264l1.272455,0l0,-8.568l-1.317102,0l0,6.18l-0.044648,0l-3.940146,-6.18l-1.305941,0l0,8.568l1.305941,0zm10.168478,0l0,-7.368l2.611881,0l0,-1.2l-6.529703,0l0,1.2l2.611881,0l0,7.368l1.305941,0z"/>
   </g>
  </g>

</svg>